<svg xmlns="http://www.w3.org/2000/svg" xmlns:xlink="http://www.w3.org/1999/xlink" width="980" height="906.69"><rect width="980" height="906.69" rx="5" ry="5" class="a"/><svg y="0%" x="0%"><circle cx="20" cy="20" r="6" fill="#ff5f58"/><circle cx="40" cy="20" r="6" fill="#ffbd2e"/><circle cx="60" cy="20" r="6" fill="#18c132"/></svg><svg height="846.69" viewBox="0 0 94 84.669" width="940" x="15" xmlns="http://www.w3.org/2000/svg" xmlns:xlink="http://www.w3.org/1999/xlink" y="50"><style>@keyframes o{0%{transform:translateX(0)}4.7%{transform:translateX(-188px)}7.8%{transform:translateX(-470px)}16.9%{transform:translateX(-564px)}17%{transform:translateX(-658px)}21.9%{transform:translateX(-752px)}28.7%{transform:translateX(-1034px)}70.5%{transform:translateX(-1128px)}78.4%{transform:translateX(-1504px)}81.3%{transform:translateX(-1786px)}to{transform:translateX(-1880px)}}.a{fill:#282d35}.f{fill:#b9c0cb}.f,.g,.h{white-space:pre}.g{fill:#a8cc8c;font-weight:700}.h{fill:#66c2cd}.h,.i,.j{font-weight:700}.i{fill:#71bef2;white-space:pre}.j{fill:#e88388}.j,.k,.l{white-space:pre}.k{fill:#dbab79;font-weight:700}.l{fill:#a8cc8c}</style><g font-family="Monaco,Consolas,Menlo,'Bitstream Vera Sans Mono','Powerline Symbols',monospace" font-size="1.67"><defs><symbol id="1"><text y="1.67" class="f">..tdata/solmate</text></symbol><symbol id="2"><text y="1.67" class="g">➜</text><text x="3.006" y="1.67" class="h">solmate</text><text x="11.022" y="1.67" class="i">git:(</text><text x="16.032" y="1.67" class="j">07af469</text><text x="23.046" y="1.67" class="i">)</text><text x="25.05" y="1.67" class="k">✗</text></symbol><symbol id="3"><text y="1.67" class="g">➜</text><text x="3.006" y="1.67" class="h">solmate</text><text x="11.022" y="1.67" class="i">git:(</text><text x="16.032" y="1.67" class="j">07af469</text><text x="23.046" y="1.67" class="i">)</text><text x="25.05" y="1.67" class="k">✗</text><text x="27.054" y="1.67" class="f">forge</text><text x="33.066" y="1.67" class="f">test</text></symbol><symbol id="4"><text y="1.67" class="f">forgesuccess.</text></symbol><symbol id="5"><text y="1.67" class="f">Running</text><text x="8.016" y="1.67" class="f">6</text><text x="10.02" y="1.67" class="f">tests</text><text x="16.032" y="1.67" class="f">for</text><text x="20.04" y="1.67" class="f">FixedPointMathLibTest</text></symbol><symbol id="6"><text y="1.67" class="l">[PASS]</text><text x="7.014" y="1.67" class="f">testMin</text><text x="15.03" y="1.67" class="f">(gas:</text><text x="21.042" y="1.67" class="f">[fuzztest])</text></symbol><symbol id="7"><text y="1.67" class="l">[PASS]</text><text x="7.014" y="1.67" class="f">testFPow</text><text x="16.032" y="1.67" class="f">(gas:</text><text x="22.044" y="1.67" class="f">1822)</text></symbol><symbol id="8"><text y="1.67" class="l">[PASS]</text><text x="7.014" y="1.67" class="f">testMax</text><text x="15.03" y="1.67" class="f">(gas:</text><text x="21.042" y="1.67" class="f">[fuzztest])</text></symbol><symbol id="9"><text y="1.67" class="l">[PASS]</text><text x="7.014" y="1.67" class="f">testSqrt</text><text x="16.032" y="1.67" class="f">(gas:</text><text x="22.044" y="1.67" class="f">[fuzztest])</text></symbol><symbol id="10"><text y="1.67" class="l">[PASS]</text><text x="7.014" y="1.67" class="f">testFDiv</text><text x="16.032" y="1.67" class="f">(gas:</text><text x="22.044" y="1.67" class="f">1733)</text></symbol><symbol id="11"><text y="1.67" class="l">[PASS]</text><text x="7.014" y="1.67" class="f">testFMul</text><text x="16.032" y="1.67" class="f">(gas:</text><text x="22.044" y="1.67" class="f">1755)</text></symbol><symbol id="12"><text y="1.67" class="f">Running</text><text x="8.016" y="1.67" class="f">2</text><text x="10.02" y="1.67" class="f">tests</text><text x="16.032" y="1.67" class="f">for</text><text x="20.04" y="1.67" class="f">TrustAuthorityTest</text></symbol><symbol id="13"><text y="1.67" class="l">[PASS]</text><text x="7.014" y="1.67" class="f">testSanityChecks</text><text x="24.048" y="1.67" class="f">(gas:</text><text x="30.06" y="1.67" class="f">8632)</text></symbol><symbol id="14"><text y="1.67" class="l">[PASS]</text><text x="7.014" y="1.67" class="f">testUpdateTrust</text><text x="23.046" y="1.67" class="f">(gas:</text><text x="29.058" y="1.67" class="f">24421)</text></symbol><symbol id="15"><text y="1.67" class="f">Running</text><text x="8.016" y="1.67" class="f">3</text><text x="10.02" y="1.67" class="f">tests</text><text x="16.032" y="1.67" class="f">for</text><text x="20.04" y="1.67" class="f">ReentrancyGuardTest</text></symbol><symbol id="16"><text y="1.67" class="l">[PASS]</text><text x="7.014" y="1.67" class="f">testNoReentrancy</text><text x="24.048" y="1.67" class="f">(gas:</text><text x="30.06" y="1.67" class="f">1204)</text></symbol><symbol id="17"><text y="1.67" class="l">[PASS]</text><text x="7.014" y="1.67" class="f">testProtectedCall</text><text x="25.05" y="1.67" class="f">(gas:</text><text x="31.062" y="1.67" class="f">23995)</text></symbol><symbol id="18"><text y="1.67" class="l">[PASS]</text><text x="7.014" y="1.67" class="f">testFailUnprotectedCall</text><text x="31.062" y="1.67" class="f">(gas:</text><text x="37.074" y="1.67" class="f">32014)</text></symbol><symbol id="19"><text y="1.67" class="f">Running</text><text x="8.016" y="1.67" class="f">4</text><text x="10.02" y="1.67" class="f">tests</text><text x="16.032" y="1.67" class="f">for</text><text x="20.04" y="1.67" class="f">RolesAuthorityTest</text></symbol><symbol id="20"><text y="1.67" class="l">[PASS]</text><text x="7.014" y="1.67" class="f">testPublicCapabilities</text><text x="30.06" y="1.67" class="f">(gas:</text><text x="36.072" y="1.67" class="f">55328)</text></symbol><symbol id="21"><text y="1.67" class="l">[PASS]</text><text x="7.014" y="1.67" class="f">testBasics</text><text x="18.036" y="1.67" class="f">(gas:</text><text x="24.048" y="1.67" class="f">94619)</text></symbol><symbol id="22"><text y="1.67" class="l">[PASS]</text><text x="7.014" y="1.67" class="f">testSanityChecks</text><text x="24.048" y="1.67" class="f">(gas:</text><text x="30.06" y="1.67" class="f">20830)</text></symbol><symbol id="23"><text y="1.67" class="l">[PASS]</text><text x="7.014" y="1.67" class="f">testRoot</text><text x="16.032" y="1.67" class="f">(gas:</text><text x="22.044" y="1.67" class="f">52297)</text></symbol><symbol id="24"><text y="1.67" class="f">Running</text><text x="8.016" y="1.67" class="f">5</text><text x="10.02" y="1.67" class="f">tests</text><text x="16.032" y="1.67" class="f">for</text><text x="20.04" y="1.67" class="f">AuthTest</text></symbol><symbol id="25"><text y="1.67" class="l">[PASS]</text><text x="7.014" y="1.67" class="f">testFailRejectingAuthority1</text><text x="35.07" y="1.67" class="f">(gas:</text><text x="41.082" y="1.67" class="f">166986)</text></symbol><symbol id="26"><text y="1.67" class="l">[PASS]</text><text x="7.014" y="1.67" class="f">testAcceptingOwner</text><text x="26.052" y="1.67" class="f">(gas:</text><text x="32.064" y="1.67" class="f">206772)</text></symbol><symbol id="27"><text y="1.67" class="l">[PASS]</text><text x="7.014" y="1.67" class="f">testFailRejectingAuthority2</text><text x="35.07" y="1.67" class="f">(gas:</text><text x="41.082" y="1.67" class="f">167429)</text></symbol><symbol id="28"><text y="1.67" class="l">[PASS]</text><text x="7.014" y="1.67" class="f">testFailNonOwner1</text><text x="25.05" y="1.67" class="f">(gas:</text><text x="31.062" y="1.67" class="f">6662)</text></symbol><symbol id="29"><text y="1.67" class="l">[PASS]</text><text x="7.014" y="1.67" class="f">testFailNonOwner2</text><text x="25.05" y="1.67" class="f">(gas:</text><text x="31.062" y="1.67" class="f">7106)</text></symbol><symbol id="30"><text y="1.67" class="f">Running</text><text x="8.016" y="1.67" class="f">2</text><text x="10.02" y="1.67" class="f">tests</text><text x="16.032" y="1.67" class="f">for</text><text x="20.04" y="1.67" class="f">Bytes32AddressLibTest</text></symbol><symbol id="31"><text y="1.67" class="l">[PASS]</text><text x="7.014" y="1.67" class="f">testFromLast20Bytes</text><text x="27.054" y="1.67" class="f">(gas:</text><text x="33.066" y="1.67" class="f">310)</text></symbol><symbol id="32"><text y="1.67" class="l">[PASS]</text><text x="7.014" y="1.67" class="f">testFillLast12Bytes</text><text x="27.054" y="1.67" class="f">(gas:</text><text x="33.066" y="1.67" class="f">351)</text></symbol><symbol id="33"><text y="1.67" class="f">Running</text><text x="8.016" y="1.67" class="f">1</text><text x="10.02" y="1.67" class="f">test</text><text x="15.03" y="1.67" class="f">for</text><text x="19.038" y="1.67" class="f">ERC20Test</text></symbol><symbol id="34"><text y="1.67" class="l">[PASS]</text><text x="7.014" y="1.67" class="f">testMetaData</text><text x="20.04" y="1.67" class="f">(gas:</text><text x="26.052" y="1.67" class="f">[fuzztest])</text></symbol><symbol id="a"><path fill="transparent" d="M0 0h94v39H0z"/></symbol><symbol id="b"><path fill="#6f7683" d="M0 0h1.102v2.171H0z"/></symbol></defs><path class="a" d="M0 0h94v84.669H0z"/><g style="animation-duration:4.649612s;animation-iteration-count:infinite;animation-name:o;animation-timing-function:steps(1,end)"><svg width="1974"><svg><use xlink:href="#a"/><use xlink:href="#b" x="-.004"/></svg><svg x="94"><use xlink:href="#a"/><use xlink:href="#b" x="-.004"/></svg><svg x="188"><use xlink:href="#a"/><use xlink:href="#b" x="14.996"/><use xlink:href="#1"/></svg><svg x="282"><use xlink:href="#a"/><use xlink:href="#b" x="26.996"/><use xlink:href="#2"/></svg><svg x="376"><use xlink:href="#a"/><use xlink:href="#b" x="26.996"/><use xlink:href="#2"/></svg><svg x="470"><use xlink:href="#a"/><use xlink:href="#b" x="26.996"/><use xlink:href="#2"/></svg><svg x="564"><use xlink:href="#a"/><use xlink:href="#b" x="27.996"/><text y="1.67" class="g">➜</text><text x="3.006" y="1.67" class="h">solmate</text><text x="11.022" y="1.67" class="i">git:(</text><text x="16.032" y="1.67" class="j">07af469</text><text x="23.046" y="1.67" class="i">)</text><text x="25.05" y="1.67" class="k">✗</text><text x="27.054" y="1.67" class="f">f</text></svg><svg x="658"><use xlink:href="#a"/><use xlink:href="#b" x="27.996"/><text y="1.67" class="g">➜</text><text x="3.006" y="1.67" class="h">solmate</text><text x="11.022" y="1.67" class="i">git:(</text><text x="16.032" y="1.67" class="j">07af469</text><text x="23.046" y="1.67" class="i">)</text><text x="25.05" y="1.67" class="k">✗</text><text x="27.054" y="1.67" class="f">f</text><text x="28.056" y="1.67" class="l">orge</text><text x="33.066" y="1.67" class="l">test</text></svg><svg x="752"><use xlink:href="#a"/><use xlink:href="#b" x="36.996"/><use xlink:href="#3"/></svg><svg x="846"><use xlink:href="#a"/><use xlink:href="#b" x="36.996"/><use xlink:href="#3"/></svg><svg x="940"><use xlink:href="#a"/><use xlink:href="#b" x="-.004" y="2.146"/><use xlink:href="#3"/></svg><svg x="1034"><use xlink:href="#a"/><use xlink:href="#b" x="4.996" y="2.146"/><use xlink:href="#3"/><text y="3.841" class="f">forge</text></svg><svg x="1128"><use xlink:href="#a"/><use xlink:href="#b" x="-.004" y="4.317"/><use xlink:href="#3"/><use xlink:href="#4" y="2.171"/></svg><svg x="1222"><use xlink:href="#a"/><use xlink:href="#b" x="39.996" y="60.763"/><use xlink:href="#3"/><use xlink:href="#4" y="2.171"/><use xlink:href="#5" y="4.342"/><use xlink:href="#6" y="6.513"/><use xlink:href="#7" y="8.684"/><use xlink:href="#8" y="10.855"/><use xlink:href="#9" y="13.026"/><use xlink:href="#10" y="15.197"/><use xlink:href="#11" y="17.368"/><use xlink:href="#12" y="21.71"/><use xlink:href="#13" y="23.881"/><use xlink:href="#14" y="26.052"/><use xlink:href="#15" y="30.394"/><use xlink:href="#16" y="32.565"/><use xlink:href="#17" y="34.736"/><use xlink:href="#18" y="36.907"/><use xlink:href="#19" y="41.249"/><use xlink:href="#20" y="43.42"/><use xlink:href="#21" y="45.591"/><use xlink:href="#22" y="47.762"/><use xlink:href="#23" y="49.933"/><use xlink:href="#24" y="54.275"/><use xlink:href="#25" y="56.446"/><use xlink:href="#26" y="58.617"/><text y="62.458" class="l">[PASS]</text><text x="7.014" y="62.458" class="f">testFailRejectingAuthority2</text><text x="35.07" y="62.458" class="f">(gas:</text></svg><svg x="1316"><use xlink:href="#a"/><use xlink:href="#b" x="-.004" y="82.473"/><use xlink:href="#3"/><use xlink:href="#4" y="2.171"/><use xlink:href="#5" y="4.342"/><use xlink:href="#6" y="6.513"/><use xlink:href="#7" y="8.684"/><use xlink:href="#8" y="10.855"/><use xlink:href="#9" y="13.026"/><use xlink:href="#10" y="15.197"/><use xlink:href="#11" y="17.368"/><use xlink:href="#12" y="21.71"/><use xlink:href="#13" y="23.881"/><use xlink:href="#14" y="26.052"/><use xlink:href="#15" y="30.394"/><use xlink:href="#16" y="32.565"/><use xlink:href="#17" y="34.736"/><use xlink:href="#18" y="36.907"/><use xlink:href="#19" y="41.249"/><use xlink:href="#20" y="43.42"/><use xlink:href="#21" y="45.591"/><use xlink:href="#22" y="47.762"/><use xlink:href="#23" y="49.933"/><use xlink:href="#24" y="54.275"/><use xlink:href="#25" y="56.446"/><use xlink:href="#26" y="58.617"/><use xlink:href="#27" y="60.788"/><use xlink:href="#28" y="62.959"/><use xlink:href="#29" y="65.13"/><use xlink:href="#30" y="69.472"/><use xlink:href="#31" y="71.643"/><use xlink:href="#32" y="73.814"/><use xlink:href="#33" y="78.156"/><use xlink:href="#34" y="80.327"/></svg><svg x="1410"><use xlink:href="#a"/><use xlink:href="#b" x="-.004" y="82.473"/><use xlink:href="#3"/><use xlink:href="#4" y="2.171"/><use xlink:href="#5" y="4.342"/><use xlink:href="#6" y="6.513"/><use xlink:href="#7" y="8.684"/><use xlink:href="#8" y="10.855"/><use xlink:href="#9" y="13.026"/><use xlink:href="#10" y="15.197"/><use xlink:href="#11" y="17.368"/><use xlink:href="#12" y="21.71"/><use xlink:href="#13" y="23.881"/><use xlink:href="#14" y="26.052"/><use xlink:href="#15" y="30.394"/><use xlink:href="#16" y="32.565"/><use xlink:href="#17" y="34.736"/><use xlink:href="#18" y="36.907"/><use xlink:href="#19" y="41.249"/><use xlink:href="#20" y="43.42"/><use xlink:href="#21" y="45.591"/><use xlink:href="#22" y="47.762"/><use xlink:href="#23" y="49.933"/><use xlink:href="#24" y="54.275"/><use xlink:href="#25" y="56.446"/><use xlink:href="#26" y="58.617"/><use xlink:href="#27" y="60.788"/><use xlink:href="#28" y="62.959"/><use xlink:href="#29" y="65.13"/><use xlink:href="#30" y="69.472"/><use xlink:href="#31" y="71.643"/><use xlink:href="#32" y="73.814"/><use xlink:href="#33" y="78.156"/><use xlink:href="#34" y="80.327"/></svg><svg x="1504"><use xlink:href="#a"/><use xlink:href="#b" x="14.996" y="82.473"/><use xlink:href="#3"/><use xlink:href="#4" y="2.171"/><use xlink:href="#5" y="4.342"/><use xlink:href="#6" y="6.513"/><use xlink:href="#7" y="8.684"/><use xlink:href="#8" y="10.855"/><use xlink:href="#9" y="13.026"/><use xlink:href="#10" y="15.197"/><use xlink:href="#11" y="17.368"/><use xlink:href="#12" y="21.71"/><use xlink:href="#13" y="23.881"/><use xlink:href="#14" y="26.052"/><use xlink:href="#15" y="30.394"/><use xlink:href="#16" y="32.565"/><use xlink:href="#17" y="34.736"/><use xlink:href="#18" y="36.907"/><use xlink:href="#19" y="41.249"/><use xlink:href="#20" y="43.42"/><use xlink:href="#21" y="45.591"/><use xlink:href="#22" y="47.762"/><use xlink:href="#23" y="49.933"/><use xlink:href="#24" y="54.275"/><use xlink:href="#25" y="56.446"/><use xlink:href="#26" y="58.617"/><use xlink:href="#27" y="60.788"/><use xlink:href="#28" y="62.959"/><use xlink:href="#29" y="65.13"/><use xlink:href="#30" y="69.472"/><use xlink:href="#31" y="71.643"/><use xlink:href="#32" y="73.814"/><use xlink:href="#33" y="78.156"/><use xlink:href="#34" y="80.327"/><use xlink:href="#1" y="82.498"/></svg><svg x="1598"><use xlink:href="#a"/><use xlink:href="#b" x="26.996" y="82.473"/><use xlink:href="#3"/><use xlink:href="#4" y="2.171"/><use xlink:href="#5" y="4.342"/><use xlink:href="#6" y="6.513"/><use xlink:href="#7" y="8.684"/><use xlink:href="#8" y="10.855"/><use xlink:href="#9" y="13.026"/><use xlink:href="#10" y="15.197"/><use xlink:href="#11" y="17.368"/><use xlink:href="#12" y="21.71"/><use xlink:href="#13" y="23.881"/><use xlink:href="#14" y="26.052"/><use xlink:href="#15" y="30.394"/><use xlink:href="#16" y="32.565"/><use xlink:href="#17" y="34.736"/><use xlink:href="#18" y="36.907"/><use xlink:href="#19" y="41.249"/><use xlink:href="#20" y="43.42"/><use xlink:href="#21" y="45.591"/><use xlink:href="#22" y="47.762"/><use xlink:href="#23" y="49.933"/><use xlink:href="#24" y="54.275"/><use xlink:href="#25" y="56.446"/><use xlink:href="#26" y="58.617"/><use xlink:href="#27" y="60.788"/><use xlink:href="#28" y="62.959"/><use xlink:href="#29" y="65.13"/><use xlink:href="#30" y="69.472"/><use xlink:href="#31" y="71.643"/><use xlink:href="#32" y="73.814"/><use xlink:href="#33" y="78.156"/><use xlink:href="#34" y="80.327"/><use xlink:href="#2" y="82.498"/></svg><svg x="1692"><use xlink:href="#a"/><use xlink:href="#b" x="26.996" y="82.473"/><use xlink:href="#3"/><use xlink:href="#4" y="2.171"/><use xlink:href="#5" y="4.342"/><use xlink:href="#6" y="6.513"/><use xlink:href="#7" y="8.684"/><use xlink:href="#8" y="10.855"/><use xlink:href="#9" y="13.026"/><use xlink:href="#10" y="15.197"/><use xlink:href="#11" y="17.368"/><use xlink:href="#12" y="21.71"/><use xlink:href="#13" y="23.881"/><use xlink:href="#14" y="26.052"/><use xlink:href="#15" y="30.394"/><use xlink:href="#16" y="32.565"/><use xlink:href="#17" y="34.736"/><use xlink:href="#18" y="36.907"/><use xlink:href="#19" y="41.249"/><use xlink:href="#20" y="43.42"/><use xlink:href="#21" y="45.591"/><use xlink:href="#22" y="47.762"/><use xlink:href="#23" y="49.933"/><use xlink:href="#24" y="54.275"/><use xlink:href="#25" y="56.446"/><use xlink:href="#26" y="58.617"/><use xlink:href="#27" y="60.788"/><use xlink:href="#28" y="62.959"/><use xlink:href="#29" y="65.13"/><use xlink:href="#30" y="69.472"/><use xlink:href="#31" y="71.643"/><use xlink:href="#32" y="73.814"/><use xlink:href="#33" y="78.156"/><use xlink:href="#34" y="80.327"/><use xlink:href="#2" y="82.498"/></svg><svg x="1786"><use xlink:href="#a"/><use xlink:href="#b" x="26.996" y="82.473"/><use xlink:href="#3"/><use xlink:href="#4" y="2.171"/><use xlink:href="#5" y="4.342"/><use xlink:href="#6" y="6.513"/><use xlink:href="#7" y="8.684"/><use xlink:href="#8" y="10.855"/><use xlink:href="#9" y="13.026"/><use xlink:href="#10" y="15.197"/><use xlink:href="#11" y="17.368"/><use xlink:href="#12" y="21.71"/><use xlink:href="#13" y="23.881"/><use xlink:href="#14" y="26.052"/><use xlink:href="#15" y="30.394"/><use xlink:href="#16" y="32.565"/><use xlink:href="#17" y="34.736"/><use xlink:href="#18" y="36.907"/><use xlink:href="#19" y="41.249"/><use xlink:href="#20" y="43.42"/><use xlink:href="#21" y="45.591"/><use xlink:href="#22" y="47.762"/><use xlink:href="#23" y="49.933"/><use xlink:href="#24" y="54.275"/><use xlink:href="#25" y="56.446"/><use xlink:href="#26" y="58.617"/><use xlink:href="#27" y="60.788"/><use xlink:href="#28" y="62.959"/><use xlink:href="#29" y="65.13"/><use xlink:href="#30" y="69.472"/><use xlink:href="#31" y="71.643"/><use xlink:href="#32" y="73.814"/><use xlink:href="#33" y="78.156"/><use xlink:href="#34" y="80.327"/><use xlink:href="#2" y="82.498"/></svg><svg x="1880"><use xlink:href="#a"/><use xlink:href="#b" x="-.004" y="82.473"/><use xlink:href="#4"/><use xlink:href="#5" y="2.171"/><use xlink:href="#6" y="4.342"/><use xlink:href="#7" y="6.513"/><use xlink:href="#8" y="8.684"/><use xlink:href="#9" y="10.855"/><use xlink:href="#10" y="13.026"/><use xlink:href="#11" y="15.197"/><use xlink:href="#12" y="19.539"/><use xlink:href="#13" y="21.71"/><use xlink:href="#14" y="23.881"/><use xlink:href="#15" y="28.223"/><use xlink:href="#16" y="30.394"/><use xlink:href="#17" y="32.565"/><use xlink:href="#18" y="34.736"/><use xlink:href="#19" y="39.078"/><use xlink:href="#20" y="41.249"/><use xlink:href="#21" y="43.42"/><use xlink:href="#22" y="45.591"/><use xlink:href="#23" y="47.762"/><use xlink:href="#24" y="52.104"/><use xlink:href="#25" y="54.275"/><use xlink:href="#26" y="56.446"/><use xlink:href="#27" y="58.617"/><use xlink:href="#28" y="60.788"/><use xlink:href="#29" y="62.959"/><use xlink:href="#30" y="67.301"/><use xlink:href="#31" y="69.472"/><use xlink:href="#32" y="71.643"/><use xlink:href="#33" y="75.985"/><use xlink:href="#34" y="78.156"/><use xlink:href="#2" y="80.327"/></svg></svg></g></g></svg></svg>