<?xml version="1.0" encoding="UTF-8" standalone="no"?>
<svg
   xmlns:dc="http://purl.org/dc/elements/1.1/"
   xmlns:cc="http://creativecommons.org/ns#"
   xmlns:rdf="http://www.w3.org/1999/02/22-rdf-syntax-ns#"
   xmlns:svg="http://www.w3.org/2000/svg"
   xmlns="http://www.w3.org/2000/svg"
   xmlns:sodipodi="http://sodipodi.sourceforge.net/DTD/sodipodi-0.dtd"
   xmlns:inkscape="http://www.inkscape.org/namespaces/inkscape"
   width="100mm"
   height="100mm"
   viewBox="0 0 100 100"
   version="1.1"
   id="svg8"
   inkscape:version="1.0.2 (e86c870879, 2021-01-15, custom)"
   sodipodi:docname="rustmit-erase.svg"
   inkscape:export-filename="/home/Pictures/Images/2021/rustmit-erase.png"
   inkscape:export-xdpi="260.09601"
   inkscape:export-ydpi="260.09601">
  <defs
     id="defs2" />
  <sodipodi:namedview
     id="base"
     pagecolor="#ffffff"
     bordercolor="#666666"
     borderopacity="1.0"
     inkscape:pageopacity="1"
     inkscape:pageshadow="2"
     inkscape:zoom="1.8101934"
     inkscape:cx="99.877058"
     inkscape:cy="177.84495"
     inkscape:document-units="mm"
     inkscape:current-layer="svg8"
     inkscape:document-rotation="0"
     showgrid="true"
     inkscape:pagecheckerboard="true"
     inkscape:showpageshadow="true"
     inkscape:lockguides="false"
     inkscape:snap-grids="true"
     inkscape:snap-bbox="true"
     inkscape:bbox-paths="true"
     inkscape:object-nodes="true"
     inkscape:bbox-nodes="true"
     inkscape:window-width="1920"
     inkscape:window-height="1048"
     inkscape:window-x="1920"
     inkscape:window-y="32"
     inkscape:window-maximized="1">
    <sodipodi:guide
       position="0,99.999999"
       orientation="0,377.95276"
       id="guide833"
       inkscape:locked="false" />
    <sodipodi:guide
       position="99.999999,99.999999"
       orientation="377.95276,0"
       id="guide835"
       inkscape:locked="false" />
    <sodipodi:guide
       position="99.999999,0"
       orientation="0,-377.95276"
       id="guide837"
       inkscape:locked="false" />
    <sodipodi:guide
       position="0,0"
       orientation="-377.95276,0"
       id="guide839"
       inkscape:locked="false" />
    <inkscape:grid
       type="xygrid"
       id="grid843"
       units="mm"
       spacingx="0.99999999"
       spacingy="0.99999999" />
  </sodipodi:namedview>
  <metadata
     id="metadata5">
    <rdf:RDF>
      <cc:Work
         rdf:about="">
        <dc:format>image/svg+xml</dc:format>
        <dc:type
           rdf:resource="http://purl.org/dc/dcmitype/StillImage" />
        <dc:title></dc:title>
      </cc:Work>
    </rdf:RDF>
  </metadata>
  <g
     id="g999"
     transform="matrix(0.65071938,0,0,0.65071938,-7.2093585,-7.1734636)"
     inkscape:label="Shell">
    <path
       d="m 72.210765,104.70989 c -0.952609,-1.23929 -5.121961,-2.25299 -6.362323,-1.29044 l -5.877022,4.50581 C 49.206836,104.68258 40.412561,96.870699 35.923308,86.563523 l 4.536672,-7.838744 c 0.779701,-1.354203 0.313588,-3.094214 -1.0296,-3.882785 l -6.68368,-3.86897 c 0.01889,-2.217595 0.230254,-4.429396 0.632442,-6.610297 1.580035,-8.567934 5.204079,-14.179643 9.428263,-18.968404 1.195929,-1.355773 2.553817,-2.559584 3.959217,-3.696782 l 6.380933,2.106346 c 1.485795,0.492153 3.092171,-0.320286 3.584324,-1.80608 l 2.331611,-7.070756 c 10.585708,-3.483461 22.16402,-2.179678 31.709945,3.570716 l 0.770401,7.405301 c 0.164041,1.556564 1.550312,2.691753 3.106875,2.527711 l 6.540899,-0.682581 c 1.05436,1.351681 2.02939,2.765349 2.88054,4.25339 1.7564,3.070669 3.16134,6.498339 4.11095,10.28612 -1.42674,16.726002 -25.50442,0.471192 -30.470872,19.772731 -1.491158,5.795209 -5.16274,7.338256 -5.0995,14.732847 0.02053,2.400995 -0.379788,5.019214 -0.401963,7.916604 z"
       id="path985"
       style="display:inline;fill:#000000;fill-opacity:1;stroke:#ffffff;stroke-width:6.14704;stroke-miterlimit:4;stroke-dasharray:none;stroke-opacity:1"
       sodipodi:nodetypes="cccccccssccccccccscssc"
       inkscape:label="inner" />
    <path
       d="M 119.28525,63.919565 C 119.06514,60.816539 116.67841,57.82544 116.12752,56.738942 107.9032,40.518344 95.318596,26.023206 76.118572,23.952527 50.218759,21.159291 26.845764,39.981615 24.052527,65.881428 21.479553,89.738893 37.24753,111.45234 59.99354,116.91163 c 1.947201,0.46735 3.94554,0.81558 5.987888,1.03584 l 0.519945,-4.16828 c -1.666403,-0.2235 -2.850535,-1.73893 -2.669116,-3.41589 0.257418,-2.38686 2.438599,-3.1683 4.143469,-2.60319 3.54379,5.57593 4.053319,4.05919 1.840005,-3.82227 -0.952609,-1.23929 -2.726927,-1.48094 -3.967289,-0.51839 l -5.877022,4.50581 C 49.206836,104.68258 40.412561,96.870699 35.923308,86.563523 l 4.536672,-7.838744 c 0.779701,-1.354203 0.313588,-3.094214 -1.0296,-3.882785 l -6.68368,-3.86897 c 0.01889,-2.217595 0.230254,-4.429396 0.632442,-6.610297 1.580035,-8.567934 5.204079,-14.179643 9.428263,-18.968404 1.195929,-1.355773 2.553817,-2.559584 3.959217,-3.696782 l 6.380933,2.106346 c 1.485795,0.492153 3.092171,-0.320286 3.584324,-1.80608 l 2.331611,-7.070756 c 10.585708,-3.483461 22.16402,-2.179678 31.709945,3.570716 l 0.770401,7.405301 c 0.164041,1.556564 1.550312,2.691753 3.106875,2.527711 l 6.540899,-0.682581 c 1.05436,1.351681 2.02939,2.765349 2.88054,4.25339 1.7564,3.070669 3.16134,6.498339 4.11095,10.28612 0.83587,-0.362885 5.86858,-2.254792 7.82377,2.591142 1.09666,-0.827306 3.27838,-0.959285 3.27838,-0.959285 z M 32.677445,81.68737 c -1.667438,-0.228822 -2.85028,-1.742607 -2.669116,-3.415893 0.44463,-4.122758 6.62877,-3.455812 6.18414,0.666946 -0.187282,1.743345 -1.77793,2.987324 -3.515024,2.748947 z M 97.111363,44.733307 c -1.667437,-0.228821 -2.850285,-1.742611 -2.669116,-3.415892 0.44463,-4.122753 6.628773,-3.455807 6.184143,0.666946 -0.18728,1.74335 -1.777931,2.987324 -3.515027,2.748946 z M 51.341868,39.656358 c -1.667437,-0.228822 -2.850285,-1.742611 -2.669116,-3.415892 0.444629,-4.122753 6.628769,-3.455808 6.184139,0.666945 -0.187278,1.74335 -1.777928,2.987324 -3.515023,2.748947 z"
       id="path1010"
       style="display:inline;fill:#000000;fill-opacity:1;stroke:#000000;stroke-width:1.00157;stroke-miterlimit:4;stroke-dasharray:none;stroke-opacity:1"
       sodipodi:nodetypes="csssscccccccccccssccccccccscccsccssccssccs"
       inkscape:label="wheel" />
    <path
       d="m 71.05,26.32 c -24.648468,0 -44.63,19.981532 -44.63,44.63 0,23.06932 17.503242,42.05054 39.814692,44.74319 C 67.771502,115.85319 61.15,120.72 61.15,120.72 l -2.87,-7.66 -6.65,4.78 -1.32,-8.09 -7.46,3.4 0.29,-8.19 -7.98,1.88 1.88,-7.98 -8.19,0.29 3.4,-7.46 -8.09,-1.32 4.78,-6.65 -7.66,-2.87 5.98,-5.59 -6.96,-4.31 6.96,-4.31 -5.98,-5.59 7.66,-2.87 -4.78,-6.65 8.09,-1.32 -3.4,-7.46 8.19,0.29 -1.88,-7.98 7.98,1.88 -0.29,-8.19 7.46,3.4 1.32,-8.09 6.65,4.78 2.87,-7.66 5.59,5.98 4.31,-6.96 4.31,6.96 5.59,-5.98 2.87,7.66 6.65,-4.78 1.32,8.09 7.46,-3.4 -0.29,8.19 7.98,-1.88 -1.88,7.98 8.19,-0.29 -3.4,7.46 8.09,1.32 -4.34108,5.945252 C 107.82594,39.358177 90.960584,26.32 71.05,26.32 Z"
       fill-rule="evenodd"
       stroke="#000000"
       stroke-linecap="round"
       stroke-linejoin="round"
       stroke-width="3"
       id="path987"
       inkscape:label="outer"
       style="display:inline;fill:#000002;fill-opacity:1;stroke-width:3.07352;stroke-miterlimit:4;stroke-dasharray:none"
       sodipodi:nodetypes="sscccccccccccccccccccccccccccccccccccccccccccccs" />
  </g>
  <path
     style="fill:none;stroke:#ffffff;stroke-width:5;stroke-linecap:round;stroke-linejoin:round;stroke-miterlimit:4;stroke-dasharray:none;stroke-opacity:1"
     d="m 10.90847,12.871764 c 1.849807,-0.950532 3.548694,-2.283809 5.549423,-2.851597 4.1778,-1.1856183 8.534128,-1.6166023 12.8129,-2.3594505 6.470538,-1.123362 12.935894,-2.287434 19.433918,-3.2389863 3.53997,-0.5183824 7.112719,-0.7808124 10.669297,-1.1692384 1.039023,-0.1134758 3.312898,-1.3632411 3.117499,-0.336467 -0.223847,1.1762479 -2.167208,1.043634 -3.31619,1.3805359 -2.623615,0.7692868 -5.321214,1.2599508 -7.972068,1.9293698 -5.167685,1.332932 -10.33537,2.6658652 -15.503053,3.9987965 -4.548262,1.009209 -9.123917,1.902053 -13.644789,3.027628 -2.815481,0.700978 -5.649972,1.393706 -8.352634,2.449133 -0.240138,0.09378 -0.129331,0.74499 0.127854,0.76276 7.025992,0.485422 16.765127,-1.266662 23.11066,-1.886628 4.936188,-0.482272 9.879207,-0.916154 14.831148,-1.193312 1.23169,-0.06894 3.33603,-1.023183 3.697548,0.156271 0.347641,1.134172 -1.994732,1.351377 -3.131315,1.691052 -3.970263,1.186541 -8.076692,1.859483 -12.097798,2.860272 -5.477667,1.363304 -10.913129,2.893832 -16.397077,4.23165 -2.3104,0.563626 -4.681981,0.86336 -6.981069,1.471484 -0.270224,0.07148 0.54593,0.188485 0.82369,0.157186 6.29023,-0.7088 12.554485,-1.63425 18.841259,-2.373084 5.725311,-0.67285 18.309373,-2.314518 24.410141,-1.385363 0.749674,0.114176 -0.995527,1.237955 -1.704729,1.506433 -2.986019,1.130397 -6.105164,1.887742 -9.211452,2.626033 -7.753411,1.8428 -15.570386,3.407081 -23.354799,5.114189 -5.171535,1.134107 -10.38262,2.101874 -15.51304,3.409458 -1.926965,0.491126 -3.9691393,0.882087 -5.6279815,1.978738 -0.4040471,0.267115 0.3295169,1.08399 0.7955553,1.215952 2.0114592,0.569557 4.1335742,0.796437 6.2239702,0.771674 5.004076,-0.05928 9.981626,-0.746148 14.978399,-1.022838 4.239911,-0.234778 8.482572,-0.49669 12.728955,-0.511419 0.549253,-0.0018 1.999255,0.104897 1.581743,0.461783 -4.2674,3.647766 -15.293489,5.021697 -18.774127,5.912965 -4.271028,1.093657 -12.166729,2.803034 -16.8427387,5.425794 -0.1496584,0.08394 0.1661653,0.337315 0.3267539,0.397778 2.8307538,1.065749 5.5326608,1.398784 8.1373788,3.028452 0.500523,0.31316 1.044025,0.799826 1.100999,1.387488 0.06838,0.705342 -0.413085,1.370296 -0.774536,1.979833 -0.631985,1.065756 -1.725967,2.10289 -2.504696,3.085444 -0.62503,0.788624 -1.057651,1.712271 -1.594999,2.563063"
     id="path880"
     inkscape:label="eraser" />
  <g
     inkscape:groupmode="layer"
     id="layer2"
     inkscape:label="Hermit"
     style="display:inline">
    <g
       inkscape:groupmode="layer"
       id="layer7"
       inkscape:label="Right Hind Leg"
       style="display:inline">
      <path
         style="fill:#000000;fill-opacity:1;stroke:#ffffff;stroke-width:0.5;stroke-linecap:butt;stroke-linejoin:round;stroke-miterlimit:4;stroke-dasharray:none;stroke-opacity:1"
         d="m 81.500519,77.622995 c 3.527392,-3.543659 3.654821,-9.625088 1.388179,-11.316934 0.643875,0.164881 3.246453,-0.336213 3.814789,-1.564416 0.447365,10.039914 -2.491676,10.689337 -5.202968,12.88135 z"
         id="path1014"
         sodipodi:nodetypes="cccc"
         inkscape:label="toe" />
      <path
         style="fill:#000000;fill-opacity:1;stroke:#ffffff;stroke-width:0.5;stroke-linecap:butt;stroke-linejoin:round;stroke-miterlimit:4;stroke-dasharray:none;stroke-opacity:1"
         d="m 83.406367,66.173556 c 6.62414,-0.495554 0.170004,-7.897498 -0.556837,-10.425445 -2.220298,-0.26509 -3.316182,0.685436 -4.367661,2.631259 2.896349,2.147363 4.476727,4.470873 4.924498,7.794186 z"
         id="path1016"
         sodipodi:nodetypes="cccc"
         inkscape:label="lower" />
      <path
         style="fill:#000000;fill-opacity:1;stroke:#ffffff;stroke-width:0.5;stroke-linecap:butt;stroke-linejoin:round;stroke-miterlimit:4;stroke-dasharray:none;stroke-opacity:1"
         d="m 81.803149,55.382688 c -2.855567,0.849288 -2.35788,1.663178 -3.284723,2.492107 -1.948773,-0.242381 -2.537868,-2.211792 -3.804737,-3.811035 -0.848111,-1.918266 0.748486,-3.146301 2.498406,-4.331046 0.940885,0.03113 3.796147,2.826289 4.591054,5.649974 z"
         id="path1018"
         sodipodi:nodetypes="ccccc"
         inkscape:label="middle" />
      <path
         style="fill:#000000;fill-opacity:1;stroke:#ffffff;stroke-width:0.5;stroke-linecap:butt;stroke-linejoin:round;stroke-miterlimit:4;stroke-dasharray:none;stroke-opacity:1"
         d="m 80.115777,50.909003 c -3,-1 -4.999999,0 -5,1.999999 -2.828741,-5.295986 -6,-5.999999 -9.000002,-8 -1.079496,-0.691202 -2.430978,-1.438145 2.000002,-1.000001 4.832718,0.688707 9.189418,4.037284 12,7.000002 z"
         id="path1020"
         sodipodi:nodetypes="ccccc"
         inkscape:label="upper" />
    </g>
    <g
       inkscape:groupmode="layer"
       id="layer8"
       inkscape:label="Right Fore Leg">
      <path
         style="fill:#000000;fill-opacity:1;stroke:#ffffff;stroke-width:0.5;stroke-linecap:butt;stroke-linejoin:round;stroke-miterlimit:4;stroke-dasharray:none;stroke-opacity:1"
         d="m 73.488966,86.169915 c 7.174579,-4.746093 5.58765,-11.780415 5.58765,-11.780415 0.139038,0.181752 1,1 2.583436,-1.151457 -0.583436,9.151457 -4.295932,11.204685 -8.171086,12.931872 z"
         id="path1028"
         sodipodi:nodetypes="cccc"
         inkscape:label="toe" />
      <path
         style="fill:#000000;fill-opacity:1;stroke:#ffffff;stroke-width:0.5;stroke-linecap:butt;stroke-linejoin:round;stroke-miterlimit:4;stroke-dasharray:none;stroke-opacity:1"
         d="m 76.115777,54.909002 c 1.567806,1.594361 1.190417,6.389244 2.180287,8.708697 1,2 -1,0 -2,1 -1,1 -6.180287,-8.708697 -0.180287,-9.708697 z"
         id="path1024"
         sodipodi:nodetypes="cccc"
         inkscape:label="middle" />
      <path
         style="fill:#000000;fill-opacity:1;stroke:#ffffff;stroke-width:0.5;stroke-linecap:butt;stroke-linejoin:round;stroke-miterlimit:4;stroke-dasharray:none;stroke-opacity:1"
         d="m 75.365777,65.673045 c 1.000004,-1.999997 2,4e-6 3.000002,-0.999994 2.321469,4.157583 -0.134433,4.000726 2.521567,8.236952 0.478415,0.763054 -0.521589,2.763052 -1.92468,1.116741 -3.147186,-3.69274 -3.596895,-5.353699 -3.596889,-8.353699 z"
         id="path1026"
         sodipodi:nodetypes="ccssc"
         inkscape:label="lower" />
      <path
         style="fill:#000000;fill-opacity:1;stroke:#ffffff;stroke-width:0.5;stroke-linecap:butt;stroke-linejoin:round;stroke-miterlimit:4;stroke-dasharray:none;stroke-opacity:1"
         d="m 77.115777,54.909002 c -1.618018,-0.270104 -3.206393,0.385895 -4,3 -3.700505,-4.453732 -3,-7.999999 -8,-10.999999 -0.350447,-3.050857 3.537371,-2.505431 4.668656,-2.24276 3.50432,2.469956 4.820248,4.037734 7.331344,10.242759 z"
         id="path1022"
         sodipodi:nodetypes="ccccc"
         inkscape:label="upper" />
    </g>
    <g
       inkscape:groupmode="layer"
       id="layer5"
       inkscape:label="Left Hind Leg">
      <path
         style="fill:#000000;fill-opacity:1;stroke:#ffffff;stroke-width:0.5;stroke-linecap:butt;stroke-linejoin:round;stroke-miterlimit:4;stroke-dasharray:none;stroke-opacity:1"
         d="m 40.192561,52.96523 c 1,1 2.670118,2.749253 4.07424,2.309413 3.726898,-3.180737 1.12505,-9.174724 1.773593,-10.764972 -1.309498,-0.534047 -0.924616,-0.600668 -2.870934,-0.651418 -0.828217,5.272475 -3.053682,5.05075 -2.976899,9.106977 z"
         id="path910"
         sodipodi:nodetypes="ccccc"
         inkscape:label="upper" />
      <path
         style="fill:#000000;fill-opacity:1;stroke:#ffffff;stroke-width:0.5;stroke-linecap:butt;stroke-linejoin:round;stroke-miterlimit:4;stroke-dasharray:none;stroke-opacity:1"
         d="m 40.115778,53.909002 c 1.324274,-0.327609 3.657389,0.989732 5,2 0.308563,3.289596 -1.264226,7.62085 -5,11 -6.50583,-3.976001 -0.196306,-9.384487 0,-13 z"
         id="path912"
         inkscape:label="middle"
         sodipodi:nodetypes="cccc" />
      <path
         style="fill:#000000;fill-opacity:1;stroke:#ffffff;stroke-width:0.5;stroke-linecap:butt;stroke-linejoin:round;stroke-miterlimit:4;stroke-dasharray:none;stroke-opacity:1"
         d="m 30.115776,73.909002 c 0.739137,-4.788532 4.978493,-6.78665 5.978493,-11.786649 0,0.999999 0.969519,3.490465 4.021509,5.786649 -2.308595,1.389904 -5,4 -6,7 -1,1 -4.3051,0.976592 -4.000002,-1 z"
         id="path914"
         inkscape:label="lower"
         sodipodi:nodetypes="scccs" />
      <path
         style="fill:#000000;fill-opacity:1;stroke:#ffffff;stroke-width:0.5;stroke-linecap:butt;stroke-linejoin:round;stroke-miterlimit:4;stroke-dasharray:none;stroke-opacity:1"
         d="m 16.927153,82.480883 c 4.12379,-2.229811 9.285719,-4.325022 13,-8 0.424793,0.704206 1.467553,1.437896 3.662003,1.001089 -4.586286,3.143365 -10.727246,6.495781 -16.662003,6.998911 z"
         id="path916"
         inkscape:label="toe"
         sodipodi:nodetypes="cccc" />
    </g>
    <g
       inkscape:groupmode="layer"
       id="layer6"
       inkscape:label="Left Fore Leg">
      <path
         style="fill:#000000;fill-opacity:1;stroke:#ffffff;stroke-width:0.5;stroke-linecap:butt;stroke-linejoin:round;stroke-miterlimit:4;stroke-dasharray:none;stroke-opacity:1"
         d="m 26.407113,85.10637 c 4.306415,-2.223989 9.33034,-5.272998 10.357144,-8.98896 0.328098,0.641225 0.392728,3.543273 3.642857,2.988961 -4.37418,4.532478 -9.670194,4.21865 -14.000001,5.999999 z"
         id="path925"
         sodipodi:nodetypes="cccc"
         inkscape:label="toe" />
      <path
         style="fill:#000000;fill-opacity:1;stroke:#ffffff;stroke-width:0.5;stroke-linecap:butt;stroke-linejoin:round;stroke-miterlimit:4;stroke-dasharray:none;stroke-opacity:1"
         d="m 49.365058,43.584598 c 0.971393,3.92503 2.593529,7.323738 0.866045,12.660777 -1.534815,-1.097037 -2.416409,-1.852333 -3.88918,-0.01558 C 46,51.999999 47.069093,45.681168 45.663166,42.671531 c 1.999291,0.05325 2.503505,-0.144408 3.701892,0.913067 z"
         id="path919"
         sodipodi:nodetypes="ccccc"
         inkscape:label="upper" />
      <path
         style="fill:#000000;fill-opacity:1;stroke:#ffffff;stroke-width:0.5;stroke-linecap:butt;stroke-linejoin:round;stroke-miterlimit:4;stroke-dasharray:none;stroke-opacity:1"
         d="m 46.074054,56.118756 c 1.198663,-1.058155 2.479646,-1.282472 4.014799,0.303303 0.05216,1.328983 -0.39704,8.630983 -3.308266,13.726861 -6.23892,-4.488752 0.192638,-9.429227 -0.706533,-14.030164 z"
         id="path921"
         sodipodi:nodetypes="cccc"
         inkscape:label="middle" />
      <path
         style="fill:#000000;fill-opacity:1;stroke:#ffffff;stroke-width:0.5;stroke-linecap:butt;stroke-linejoin:round;stroke-miterlimit:4;stroke-dasharray:none;stroke-opacity:1"
         d="m 37.115778,76.909001 c -0.448825,-3.792994 6.745464,-6.767355 6.90908,-11.899294 -0.01874,1.40083 0.550726,4.26504 3.545107,5.45721 -1.362164,3.0277 -4.543568,5.359071 -7.454187,8.442085 -1.228798,0.309329 -2.729065,0.289654 -3,-2.000001 z"
         id="path923"
         sodipodi:nodetypes="scccs"
         inkscape:label="lower" />
    </g>
    <g
       inkscape:groupmode="layer"
       id="layer4"
       inkscape:label="Right Cheliped">
      <path
         style="fill:#000000;fill-opacity:1;stroke:#ffffff;stroke-width:0.5;stroke-linecap:butt;stroke-linejoin:miter;stroke-miterlimit:4;stroke-dasharray:none;stroke-opacity:1"
         d="m 71.115777,63.909002 c -2.668884,1.905679 -5.774963,0.615044 -8,0 -4.578367,8.726868 -0.660726,13.036701 2,17.999999 -1.923763,-9.76253 -1.223275,-10.337899 -0.63742,-13.017845 0.63742,5.017846 -0.616496,9.173406 1.637418,16.017845 4.206398,-4.450436 11.294106,-11.805867 5.000002,-20.999999 z"
         id="path903"
         sodipodi:nodetypes="cccccc"
         inkscape:label="lower" />
      <path
         style="fill:#000000;fill-opacity:1;stroke:#ffffff;stroke-width:0.5;stroke-linecap:butt;stroke-linejoin:miter;stroke-miterlimit:4;stroke-dasharray:none;stroke-opacity:1"
         d="m 70.970573,62.999999 c -1.024047,0.975361 -4.566734,1.481143 -6.970574,1 0.07303,-2.999111 -3.128059,-5.884707 -0.759278,-12.191488 1.024048,-0.975359 2.048095,-1.950719 5.047206,-1.877689 0.926673,3.023454 6.130176,2.408047 2.682646,13.069177 z"
         id="path905"
         sodipodi:nodetypes="ccccc"
         inkscape:label="middle" />
      <path
         style="fill:#000000;fill-opacity:1;stroke:#ffffff;stroke-width:0.5;stroke-linecap:butt;stroke-linejoin:miter;stroke-miterlimit:4;stroke-dasharray:none;stroke-opacity:1"
         d="m 62.352301,52.546818 c 2.581086,-2.888491 5.080805,-2.748336 7.32827,-2.644942 -5.173694,-5.484364 -6.746788,-8.720074 -13.564794,-5.992875 3.045341,2.497559 5.562295,5.756677 6.236524,8.637817 z"
         id="path907"
         sodipodi:nodetypes="cccc"
         inkscape:label="upper" />
    </g>
    <g
       inkscape:groupmode="layer"
       id="layer3"
       inkscape:label="Left Cheliped">
      <path
         style="fill:#000000;fill-opacity:1;stroke:#ffffff;stroke-width:0.5;stroke-linecap:butt;stroke-linejoin:miter;stroke-miterlimit:4;stroke-dasharray:none;stroke-opacity:1"
         d="m 49.115778,42.909003 c 1.874206,4.775911 2.872953,11.02306 2.141441,14.843942 2.326812,-2.023803 4.869682,-3.582601 8.534944,-2.243308 -1.96186,-5.533223 -4.706338,-13.496686 -10.676385,-12.600634 z"
         id="path896"
         sodipodi:nodetypes="cccc"
         inkscape:label="upper" />
      <path
         style="fill:#000000;fill-opacity:1;stroke:#ffffff;stroke-width:0.5;stroke-linecap:butt;stroke-linejoin:miter;stroke-miterlimit:4;stroke-dasharray:none;stroke-opacity:1"
         d="m 50.115776,67.909 c -0.361689,-3.648659 -0.506342,-7.301118 2.000001,-10.999999 3.031806,-2.730167 5.584891,-2.317936 8,-1 1.936265,6.370826 0.935871,8.873587 -1.000001,14.000001 -2.214463,1.690952 -4.979527,1.729395 -9,-2.000002 z"
         id="path898"
         sodipodi:nodetypes="ccccc"
         inkscape:label="middle" />
      <path
         style="fill:#000000;fill-opacity:1;stroke:#ffffff;stroke-width:0.5;stroke-linecap:butt;stroke-linejoin:miter;stroke-miterlimit:4;stroke-dasharray:none;stroke-opacity:1"
         d="m 50.115777,92.909002 c -5.548626,-4.053882 -8.990525,-11.391203 1,-23 2.518723,0.772924 4.986345,1.424681 6.999999,1 4.517293,14.758297 -3.369964,19.488324 -6.999999,20.999998 -0.980858,-2.179079 3,-5.999998 3.999999,-8 -1.936564,3.377195 -5.857708,5.383213 -4.999999,9.000002 z"
         id="path900"
         sodipodi:nodetypes="cccccc"
         inkscape:label="lower" />
    </g>
    <path
       style="opacity:1;fill:#000000;fill-opacity:1;stroke:#ffffff;stroke-width:0.2;stroke-linecap:butt;stroke-linejoin:round;stroke-miterlimit:4;stroke-dasharray:none;stroke-opacity:1"
       d="M 24.115778,95.909002 C 43.60636,87.278476 75.376665,73.749313 64.115777,48.909003 62.746623,45.888795 58.999999,44 58.115776,44.909002 c 0.181069,0.647621 0.312306,1.464385 0.814518,2.414852 0.841187,1.592 4.398383,5.425292 0.550245,2.566875 -0.114741,1.837816 -0.276387,1.644793 -1.883139,-2.210758 -0.41733,-1.001422 -1.194958,-1.711632 -2.201611,-2.102892 -8.155699,-1.778525 -7.592003,-4.025034 -7.665076,-5.157929 2.059826,-2.135203 9.763573,-1.48809 11.385064,-2.510147 0.378509,2.022057 1.78325,2.184436 2.581892,1.127132 0.402725,-0.533159 1.005218,-1.459451 2.182066,-2.819531 0,0 1.516272,0.55102 1.414488,0.425445 -2.842941,2.584449 -4.122178,5.118101 -2.25449,5.659839 2.077371,0.602559 3.365648,-3.375542 7.076042,-5.392886 l 1.000001,1.000001 c -1.477414,0.891787 -2.672122,1.216642 -4.239759,4.790834 -0.857996,1.956219 2.070084,-0.03323 4.555974,-1.307273 1.979291,-1.180231 4.355143,-0.976834 6.283687,-0.324663 14.180053,4.909765 12.544061,40.133872 31.400102,44.841101 C 90.863441,82.952604 89.501261,49.380718 78.04312,43.044313 c -2.335221,-1.206434 -4.33105,-1.307413 -6.214119,0.05068 -1.084171,0.765071 -2.711829,1.779697 -5.997065,1.835959 -0.541223,0.0093 4.053911,1.212814 3.997617,1.892207 -0.01228,0.148227 -1.542196,-0.252945 -1.941113,-0.108686 3.851719,3.529877 -2.280337,-0.438997 -3.772663,-1.805467 C 63.350192,44.205348 61.999999,44 60.640193,44.057005 62.999999,45 63.945342,46.190647 64.877486,47.823172 80.281279,75.767598 37,90.999999 24.115778,95.909002 Z"
       id="path892"
       sodipodi:nodetypes="cscscscccsccsccscccccssccccc"
       inkscape:label="face" />
    <path
       id="path862"
       style="fill:#000000;fill-opacity:1;fill-rule:evenodd;stroke:none;stroke-width:0.274192"
       inkscape:label="left eye"
       d="m 65.186173,34.076475 a 2.0726332,1.554475 3.7151065 0 0 -2.149646,1.41834 2.0726332,1.554475 3.7151065 0 0 1.967416,1.68567 2.0726332,1.554475 3.7151065 0 0 2.169422,-1.417057 2.0726332,1.554475 3.7151065 0 0 -1.967953,-1.685704 2.0726332,1.554475 3.7151065 0 0 -0.01923,-0.0012 z m 0.302928,0.591212 c 0.96284,0.122842 0.872401,1.078495 -0.212566,0.843778 -0.154391,-0.03341 -0.539541,-0.01324 -0.728561,0.186676 -0.647317,0.684666 -1.07554,-0.657063 0.105642,-0.957516 0.33511,-0.08524 0.61329,-0.101289 0.835485,-0.07294 z" />
    <path
       id="path864"
       style="fill:#000000;fill-opacity:1;fill-rule:evenodd;stroke:none;stroke-width:0.264583;stroke-opacity:1"
       inkscape:label="right eye"
       d="m 70.714948,35.469831 a 1.9999999,1.5 2.3429749 0 0 -2.040947,1.417915 1.9999999,1.5 2.3429749 0 0 1.936899,1.580155 1.9999999,1.5 2.3429749 0 0 2.059513,-1.416641 1.9999999,1.5 2.3429749 0 0 -1.936878,-1.580668 1.9999999,1.5 2.3429749 0 0 -0.01858,-7.61e-4 z m -0.03659,0.439155 c 1.504655,0.08864 1.588122,1.512546 0.193988,0.808041 -0.136043,-0.06875 -0.577089,-0.07497 -0.812411,0.04796 -0.917426,0.479238 -0.888163,-0.781709 0.29876,-0.855115 0.112924,-0.007 0.21935,-0.0068 0.319663,-8.71e-4 z" />
  </g>
</svg>
