<?xml version="1.0" standalone="no"?>
<!DOCTYPE svg PUBLIC "-//W3C//DTD SVG 20010904//EN"
 "http://www.w3.org/TR/2001/REC-SVG-20010904/DTD/svg10.dtd">
<svg version="1.0" xmlns="http://www.w3.org/2000/svg"
 width="700.000000pt" height="433.000000pt" viewBox="0 0 700.000000 433.000000"
 preserveAspectRatio="xMidYMid meet">
<metadata>
Created by potrace 1.15, written by Peter Selinger 2001-2017
</metadata>
<g transform="translate(0.000000,433.000000) scale(0.100000,-0.100000)"
fill="#000000" stroke="none">
<path d="M987 3178 c-41 -74 -41 -74 -90 -34 -63 52 -83 48 -112 -19 -14 -30
-27 -55 -30 -55 -3 0 -24 14 -47 30 -43 32 -79 38 -95 18 -6 -7 -13 -35 -17
-62 -3 -27 -8 -51 -11 -54 -2 -2 -22 3 -45 12 -89 35 -118 16 -106 -69 4 -24
3 -46 -2 -49 -6 -3 -35 -1 -67 6 -48 9 -59 9 -72 -5 -13 -13 -14 -22 -4 -61
19 -75 19 -75 -57 -78 -61 -3 -67 -5 -70 -26 -2 -13 4 -41 12 -63 25 -61 22
-66 -36 -74 -29 -4 -59 -12 -65 -17 -22 -18 -14 -53 22 -95 19 -23 35 -43 35
-46 0 -2 -12 -7 -27 -10 -47 -10 -93 -44 -93 -69 0 -13 18 -40 41 -64 l41 -42
-46 -27 c-42 -24 -46 -30 -46 -64 0 -33 5 -40 40 -60 22 -12 40 -25 40 -28 0
-2 -16 -23 -35 -46 -53 -61 -46 -86 28 -112 31 -11 57 -24 57 -30 0 -5 -14
-23 -31 -39 -60 -60 -45 -109 37 -119 25 -2 48 -7 51 -11 3 -3 -2 -25 -11 -49
-32 -86 -16 -113 63 -102 31 4 51 3 56 -4 3 -6 1 -37 -5 -67 -16 -78 -4 -90
74 -74 30 6 60 9 65 5 6 -3 7 -27 4 -55 -4 -33 -2 -55 7 -65 16 -19 57 -19 90
0 46 26 59 20 66 -36 12 -86 45 -100 108 -44 22 19 45 35 51 35 6 0 19 -26 30
-58 26 -75 52 -80 112 -22 l43 40 26 -42 c31 -50 41 -58 71 -58 16 0 31 15 54
53 l33 52 39 -42 c50 -54 77 -56 106 -8 11 20 24 47 27 60 8 31 14 31 48 0 71
-66 107 -57 121 32 4 26 9 51 11 55 3 4 23 -2 47 -12 52 -24 93 -25 101 -4 3
9 6 40 6 70 0 61 1 61 76 43 39 -10 48 -9 61 4 14 13 14 24 5 72 -7 32 -9 62
-6 67 4 6 25 7 50 3 63 -9 84 0 84 36 0 16 -7 46 -15 66 -8 19 -15 39 -15 44
0 5 23 11 51 15 85 11 99 43 49 112 -16 23 -30 45 -30 49 0 5 24 17 53 28 68
27 73 53 22 112 -19 23 -35 44 -35 47 0 2 22 17 50 33 41 23 50 33 50 55 0 22
-9 32 -50 54 -27 15 -50 32 -50 39 0 6 16 26 35 45 19 19 35 44 35 56 0 25
-40 59 -83 69 -15 4 -27 10 -27 14 0 3 14 24 30 45 32 42 38 77 18 94 -7 5
-37 13 -66 17 -43 6 -53 10 -49 24 40 138 39 141 -48 141 -36 0 -65 4 -65 9 0
5 5 32 12 61 10 44 9 53 -5 67 -14 14 -23 15 -67 5 -29 -7 -55 -12 -60 -12 -5
0 -10 30 -12 68 -3 65 -4 67 -31 70 -16 2 -46 -4 -68 -12 -22 -9 -43 -16 -48
-16 -5 0 -12 24 -16 53 -4 28 -12 58 -17 65 -17 20 -53 14 -97 -19 -24 -17
-44 -29 -44 -27 -59 121 -75 130 -137 74 -22 -20 -44 -36 -48 -36 -4 0 -21 23
-37 50 -37 62 -70 69 -98 18z m41 -398 c17 0 44 18 83 55 32 30 66 55 76 55
32 0 125 -31 186 -61 l57 -29 0 -88 c0 -62 -4 -94 -15 -109 l-15 -22 -44 19
c-90 40 -166 54 -301 54 -105 0 -145 -4 -210 -23 -197 -55 -335 -178 -386
-341 -29 -92 -28 -227 1 -315 12 -37 20 -68 19 -69 -10 -9 -107 -66 -112 -66
-6 0 -33 66 -53 130 -8 25 -17 95 -21 156 l-6 110 32 13 c17 8 31 17 31 21 0
4 12 11 28 15 52 13 72 33 72 73 0 20 -7 50 -15 65 -22 44 -29 117 -13 154 31
74 177 207 285 262 23 11 72 29 110 40 l68 19 59 -59 c41 -41 66 -59 84 -59z
m206 -307 c68 -22 133 -83 168 -160 l28 -63 85 0 85 0 0 40 c0 39 0 40 19 21
10 -10 33 -22 50 -26 17 -4 31 -10 31 -15 0 -5 15 -14 34 -21 33 -12 35 -14
38 -73 10 -156 -34 -309 -117 -411 -19 -23 -35 -45 -35 -48 0 -3 -12 -18 -27
-33 -26 -26 -28 -27 -88 -15 -120 22 -129 17 -151 -81 -8 -35 -16 -73 -19 -85
-11 -47 -251 -92 -387 -73 -40 6 -80 12 -88 15 -131 36 -129 35 -139 68 -6 18
-15 56 -21 86 -5 30 -15 60 -21 68 -14 16 -75 17 -135 2 -39 -10 -48 -9 -62 5
-19 19 -23 15 63 65 l49 29 31 -23 c46 -36 143 -81 215 -101 90 -25 328 -26
420 -1 204 55 336 187 348 350 l4 57 -85 0 -86 0 -7 -37 c-23 -130 -113 -200
-274 -217 -182 -18 -314 57 -356 201 -24 82 -16 259 15 328 66 148 229 206
415 148z"/>
<path d="M4557 2523 c-4 -3 -7 -17 -7 -30 0 -59 -47 -109 -116 -123 -53 -11
-54 -12 -54 -46 l0 -34 50 0 50 0 0 -135 c0 -75 5 -145 11 -158 16 -36 64 -59
133 -64 115 -10 158 27 172 145 l7 62 -46 0 -46 0 -3 -47 c-3 -41 -6 -48 -25
-51 -23 -3 -23 -2 -23 122 l0 126 60 0 60 0 0 40 0 40 -60 0 -60 0 0 80 0 80
-48 0 c-27 0 -52 -3 -55 -7z"/>
<path d="M2258 2373 l-118 -4 0 -39 c0 -36 2 -39 33 -42 l32 -3 3 -132 3 -133
-36 0 c-34 0 -35 -1 -35 -40 l0 -40 190 0 190 0 0 40 0 39 -57 3 -58 3 -3 84
c-3 94 7 131 46 161 34 28 42 25 42 -14 0 -44 22 -61 81 -61 63 0 94 28 94 85
0 57 -37 91 -104 98 -57 5 -134 -18 -151 -46 -7 -14 -9 -10 -10 16 0 20 -5 31
-12 30 -7 -1 -66 -4 -130 -5z"/>
<path d="M2867 2370 c-65 -17 -116 -49 -144 -92 -25 -37 -28 -51 -28 -124 0
-75 3 -86 30 -125 18 -26 50 -53 80 -68 44 -23 61 -26 160 -26 101 0 115 2
168 28 40 20 66 42 85 70 24 36 27 50 27 123 0 75 -3 86 -30 125 -45 64 -108
91 -220 95 -49 2 -107 -1 -128 -6z m137 -81 c34 -16 51 -62 50 -139 -1 -108
-45 -158 -115 -130 -36 15 -54 60 -54 135 0 113 47 166 119 134z"/>
<path d="M3418 2364 c-117 -36 -155 -161 -68 -226 15 -11 78 -29 148 -43 134
-27 142 -30 142 -50 0 -18 -34 -28 -87 -27 -61 0 -109 19 -137 53 -20 23 -33
29 -65 29 l-41 0 0 -80 0 -80 44 0 c24 0 46 5 48 11 3 8 20 6 58 -5 206 -61
407 55 335 193 -19 37 -63 57 -182 81 -142 29 -143 29 -143 44 0 21 57 37 104
30 52 -9 92 -29 106 -54 8 -15 21 -20 55 -20 l45 0 0 80 0 80 -39 0 c-24 0
-41 -5 -44 -14 -5 -13 -13 -13 -59 0 -67 17 -159 17 -220 -2z"/>
<path d="M3968 2363 c-66 -22 -100 -60 -106 -121 -8 -91 25 -115 213 -152 122
-24 137 -32 113 -56 -12 -12 -34 -17 -77 -16 -68 1 -125 23 -148 58 -12 18
-24 24 -54 24 l-39 0 0 -80 0 -80 38 0 c21 0 42 4 48 10 6 6 27 4 59 -6 113
-35 279 -1 328 68 26 35 26 101 0 136 -28 38 -55 49 -188 76 -63 13 -118 26
-122 29 -12 13 7 34 36 40 51 11 127 -11 158 -44 22 -23 36 -29 70 -29 l43 0
0 80 0 80 -39 0 c-21 0 -44 -6 -50 -14 -9 -11 -19 -11 -63 0 -68 18 -161 17
-220 -3z"/>
<path d="M5025 2371 c-125 -31 -199 -135 -180 -253 20 -117 99 -176 250 -185
162 -11 272 39 300 135 6 21 4 22 -47 22 -45 0 -55 -3 -63 -22 -16 -36 -53
-49 -123 -45 -69 3 -105 27 -117 80 l-7 27 181 0 181 0 0 38 c0 51 -41 134
-80 162 -17 12 -52 29 -77 36 -48 15 -167 17 -218 5z"/>
<path d="M5558 2373 l-118 -4 0 -39 c0 -37 2 -40 28 -40 51 0 53 -7 50 -141
l-3 -124 -32 -3 c-31 -3 -33 -6 -33 -43 l0 -39 190 0 190 0 0 40 0 40 -60 0
-60 0 0 103 0 103 33 32 c41 40 55 41 49 3 -10 -72 115 -97 165 -32 22 28 16
89 -11 116 -44 43 -148 46 -206 5 l-30 -21 0 25 c0 19 -5 25 -17 24 -10 -1
-71 -4 -135 -5z"/>
<path d="M6327 2366 c-20 -8 -44 -19 -52 -26 -13 -10 -15 -9 -15 9 0 20 -4 21
-130 21 l-130 0 0 -39 c0 -37 2 -40 33 -43 l32 -3 3 -132 3 -133 -36 0 c-34 0
-35 -1 -35 -40 l0 -40 160 0 160 0 0 39 c0 36 -3 40 -27 43 l-28 3 -3 106 c-3
119 5 135 69 145 60 10 73 -10 78 -115 4 -117 -2 -141 -34 -141 -22 0 -25 -4
-25 -40 l0 -40 150 0 150 0 0 39 c0 36 -3 40 -27 43 l-28 3 0 108 c0 102 1
110 24 128 29 24 72 24 100 2 20 -17 22 -26 19 -128 l-3 -110 -27 -3 c-25 -3
-28 -7 -28 -43 l0 -39 160 0 160 0 0 40 c0 39 -1 40 -34 40 -22 0 -36 6 -40
16 -3 9 -6 67 -6 129 0 130 -8 156 -59 188 -30 18 -50 22 -122 22 -76 0 -90
-3 -126 -27 -37 -25 -43 -26 -55 -11 -34 42 -153 56 -231 29z"/>
</g>
</svg>
